{
  "source": "C:\\Users\\Peter\\Desktop\\stuff\\MIUN\\quantitative_research\\video_compression\\videos\\BVI-HD\\BVI-HD_CDVL_videos\\ORIG\\BridgeRiver_1920x1080_30fps.mp4",
  "output": "C:\\Users\\Peter\\Desktop\\stuff\\MIUN\\quantitative_research\\video_compression\\compressed_videos\\BVI-HD\\h264\\2\\BridgeRiver_1920x1080_30fps_h264.mp4",
  "codec": "h264",
  "ok": "Input #0, mov,mp4,m4a,3gp,3g2,mj2, from 'C:\\Users\\Peter\\Desktop\\stuff\\MIUN\\quantitative_research\\video_compression\\videos\\BVI-HD\\BVI-HD_CDVL_videos\\ORIG\\BridgeRiver_1920x1080_30fps.mp4':\n  Metadata:\n    major_brand     : isom\n    minor_version   : 512\n    compatible_brands: isomiso2avc1mp41\n    encoder         : Lavf54.28.101\n  Duration: 00:00:05.00, start: 0.000000, bitrate: 274913 kb/s\n  Stream #0:0[0x1](und): Video: h264 (High 4:4:4 Predictive) (avc1 / 0x31637661), yuv420p(progressive), 1920x1080, 274910 kb/s, 30 fps, 30 tbr, 30 tbn (default)\n    Metadata:\n      handler_name    : VideoHandler\n      vendor_id       : [0][0][0][0]\n[out#0/mp4 @ 0000020f39289a40] Codec AVOption b:a (set bitrate (in bits/s)) has not been used for any stream. The most likely reason is either wrong type (e.g. a video option with no video streams) or that it is a private option of some decoder which was not actually used for any stream.\nStream mapping:\n  Stream #0:0 -> #0:0 (h264 (native) -> h264 (libx264))\nPress [q] to stop, [?] for help\n[libx264 @ 0000020f3a0075c0] using cpu capabilities: MMX2 SSE2Fast SSSE3 SSE4.2 AVX FMA3 BMI2 AVX2\n[libx264 @ 0000020f3a0075c0] profile High, level 5.0, 4:2:0, 8-bit\n[libx264 @ 0000020f3a0075c0] 264 - core 165 r3222 b35605a - H.264/MPEG-4 AVC codec - Copyleft 2003-2025 - http://www.videolan.org/x264.html - options: cabac=1 ref=5 deblock=1:0:0 analyse=0x3:0x113 me=hex subme=8 psy=1 psy_rd=1.00:0.00 mixed_ref=1 me_range=16 chroma_me=1 trellis=2 8x8dct=1 cqm=0 deadzone=21,11 fast_pskip=1 chroma_qp_offset=-2 threads=18 lookahead_threads=3 sliced_threads=0 nr=0 decimate=1 interlaced=0 bluray_compat=0 constrained_intra=0 bframes=3 b_pyramid=2 b_adapt=1 b_bias=0 direct=3 weightb=1 open_gop=0 weightp=2 keyint=250 keyint_min=25 scenecut=40 intra_refresh=0 rc_lookahead=50 rc=cbr mbtree=1 bitrate=2000 ratetol=1.0 qcomp=0.60 qpmin=0 qpmax=69 qpstep=4 vbv_maxrate=2000 vbv_bufsize=2000 nal_hrd=none filler=0 ip_ratio=1.40 aq=1:1.00\nOutput #0, mp4, to 'C:\\Users\\Peter\\Desktop\\stuff\\MIUN\\quantitative_research\\video_compression\\compressed_videos\\BVI-HD\\h264\\2\\BridgeRiver_1920x1080_30fps_h264.mp4':\n  Metadata:\n    major_brand     : isom\n    minor_version   : 512\n    compatible_brands: isomiso2avc1mp41\n    encoder         : Lavf62.3.100\n  Stream #0:0(und): Video: h264 (avc1 / 0x31637661), yuv420p(tv, progressive), 1920x1080, q=2-31, 2000 kb/s, 30 fps, 15360 tbn (default)\n    Metadata:\n      encoder         : Lavc62.11.100 libx264\n      handler_name    : VideoHandler\n      vendor_id       : [0][0][0][0]\n    Side data:\n      cpb: bitrate max/min/avg: 2000000/0/2000000 buffer size: 2000000 vbv_delay: N/A\nframe=    0 fps=0.0 q=0.0 size=       0KiB time=N/A bitrate=N/A speed=N/A elapsed=0:00:00.51    \nframe=    0 fps=0.0 q=0.0 size=       0KiB time=N/A bitrate=N/A speed=N/A elapsed=0:00:01.09    \nframe=    0 fps=0.0 q=0.0 size=       0KiB time=N/A bitrate=N/A speed=N/A elapsed=0:00:01.66    \nframe=   16 fps=7.3 q=42.0 size=       0KiB time=00:00:00.33 bitrate=   1.2kbits/s speed=0.151x elapsed=0:00:02.20    \nframe=   41 fps= 15 q=42.0 size=       0KiB time=00:00:01.13 bitrate=   0.3kbits/s speed=0.403x elapsed=0:00:02.81    \nframe=   64 fps= 18 q=42.0 size=     256KiB time=00:00:02.06 bitrate=1014.9kbits/s speed=0.591x elapsed=0:00:03.49    \nframe=   97 fps= 24 q=43.0 size=     512KiB time=00:00:03.16 bitrate=1324.6kbits/s speed=0.782x elapsed=0:00:04.05    \nframe=  137 fps= 30 q=-1.0 size=    1024KiB time=00:00:04.50 bitrate=1864.2kbits/s speed=0.977x elapsed=0:00:04.60    \n[mp4 @ 0000020f392914c0] Starting second pass: moving the moov atom to the beginning of the file\n[out#0/mp4 @ 0000020f39289a40] video:1134KiB audio:0KiB subtitle:0KiB other streams:0KiB global headers:0KiB muxing overhead: 0.230456%\nframe=  150 fps= 31 q=-1.0 Lsize=    1136KiB time=00:00:04.93 bitrate=1886.6kbits/s speed=1.03x elapsed=0:00:04.76    \n[libx264 @ 0000020f3a0075c0] frame I:1     Avg QP:42.36  size: 36169\n[libx264 @ 0000020f3a0075c0] frame P:38    Avg QP:42.79  size: 13282\n[libx264 @ 0000020f3a0075c0] frame B:111   Avg QP:45.77  size:  5577\n[libx264 @ 0000020f3a0075c0] consecutive B-frames:  1.3%  0.0%  0.0% 98.7%\n[libx264 @ 0000020f3a0075c0] mb I  I16..4: 30.7% 63.7%  5.6%\n[libx264 @ 0000020f3a0075c0] mb P  I16..4:  0.9%  3.5%  0.1%  P16..4: 20.7%  4.8%  4.0%  0.0%  0.0%    skip:66.1%\n[libx264 @ 0000020f3a0075c0] mb B  I16..4:  0.0%  0.3%  0.0%  B16..8: 18.0%  1.9%  0.2%  direct: 1.6%  skip:78.0%  L0:43.7% L1:53.7% BI: 2.6%\n[libx264 @ 0000020f3a0075c0] 8x8 transform intra:74.8% inter:75.8%\n[libx264 @ 0000020f3a0075c0] direct mvs  spatial:91.0% temporal:9.0%\n[libx264 @ 0000020f3a0075c0] coded y,uvDC,uvAC intra: 42.1% 11.0% 0.7% inter: 6.4% 0.3% 0.0%\n[libx264 @ 0000020f3a0075c0] i16 v,h,dc,p: 22% 46%  8% 24%\n[libx264 @ 0000020f3a0075c0] i8 v,h,dc,ddl,ddr,vr,hd,vl,hu:  5%  7% 13%  7% 17%  8% 23%  6% 15%\n[libx264 @ 0000020f3a0075c0] i4 v,h,dc,ddl,ddr,vr,hd,vl,hu:  3%  8%  7%  8% 15%  9% 19%  7% 24%\n[libx264 @ 0000020f3a0075c0] i8c dc,h,v,p: 95%  4%  1%  0%\n[libx264 @ 0000020f3a0075c0] Weighted P-Frames: Y:0.0% UV:0.0%\n[libx264 @ 0000020f3a0075c0] ref P L0: 51.9%  4.6% 21.8% 10.2% 11.5%\n[libx264 @ 0000020f3a0075c0] ref B L0: 77.2% 13.5%  6.4%  2.9%\n[libx264 @ 0000020f3a0075c0] ref B L1: 95.5%  4.5%\n[libx264 @ 0000020f3a0075c0] kb/s:1855.96\n",
  "seconds": 5.073659181594849,
  "probe_out": {}
}